# xmcd CD database file
#
# Track frame offsets:
#	150
#	14184
#	26769
#	40539
#	53923
#	67723
#	80801
#	95060
#	108230
#	123847
#	134527
#
# Disc length: 1986 seconds
#
# Revision: 2
# Processed by: cddbd v1.5.2PL0 Copyright (c) Steve Scherf et al.
# Submitted via: CDex 2.05
#
DISCID=9207c00b
DTITLE=Various Artist - Roots Of Blues [CD2]
DYEAR=2017
DGENRE=Blues
TTITLE0=Willie Dixon - Walking The Blues
TTITLE1=Bo Diddley - Bo Diddley
TTITLE2=T-Bone Walker - Call It Stormy Monday
TTITLE3=Leadbelly - C.C. Rider (See See Rider)
TTITLE4=Albert King - Bad Luck Blues
TTITLE5=Muddy Waters - I'm Your Hoochie Coochie Man
TTITLE6=John Lee Hooker - I'm In The Mood
TTITLE7=Ray Charles - I Got A Woman
TTITLE8=B.B. King - Walkin' And Cryin'
TTITLE9=Buddy Guy - I Got My Eyes On You
TTITLE10=Bo Diddley - Say Man
EXTD=YEAR: 2017
EXTT0=
EXTT1=
EXTT2=
EXTT3=
EXTT4=
EXTT5=
EXTT6=
EXTT7=
EXTT8=
EXTT9=
EXTT10=
PLAYORDER=
